<svg xmlns="http://www.w3.org/2000/svg" viewBox="0 0 600 420" width="600" height="420">
  <defs>
    <linearGradient id="bidGrad" x1="0" y1="0" x2="1" y2="0">
      <stop offset="0%" stop-color="#213F99"/>
      <stop offset="100%" stop-color="#45ACF4"/>
    </linearGradient>
  </defs>

  <!-- Title -->
  <rect x="0" y="0" width="600" height="36" rx="6" fill="#213F99"/>
  <text x="300" y="24" text-anchor="middle" fill="white" font-family="Quicksand,sans-serif" font-size="16" font-weight="700">BOT BUILDERS — AUCTION BIDDING BOARD</text>

  <!-- AUCTION POOL -->
  <rect x="10" y="44" width="580" height="180" rx="8" fill="#F2F9FE" stroke="#45ACF4" stroke-width="2" stroke-dasharray="8,3"/>
  <rect x="18" y="52" width="564" height="26" rx="4" fill="#45ACF4"/>
  <text x="300" y="70" text-anchor="middle" fill="white" font-family="Quicksand,sans-serif" font-size="14" font-weight="700">AUCTION POOL — Deal 20 + (5 × players) cards face-up here</text>

  <!-- Card slots in the pool -->
  <g fill="none" stroke="#A6CEEC" stroke-width="1.5" rx="3">
    <rect x="25" y="88" width="85" height="56" fill="#fff"/>
    <rect x="118" y="88" width="85" height="56" fill="#fff"/>
    <rect x="211" y="88" width="85" height="56" fill="#fff"/>
    <rect x="304" y="88" width="85" height="56" fill="#fff"/>
    <rect x="397" y="88" width="85" height="56" fill="#fff"/>
    <rect x="490" y="88" width="85" height="56" fill="#fff"/>
    <rect x="25" y="152" width="85" height="56" fill="#fff"/>
    <rect x="118" y="152" width="85" height="56" fill="#fff"/>
    <rect x="211" y="152" width="85" height="56" fill="#fff"/>
    <rect x="304" y="152" width="85" height="56" fill="#fff"/>
    <rect x="397" y="152" width="85" height="56" fill="#fff"/>
    <rect x="490" y="152" width="85" height="56" fill="#fff"/>
  </g>
  <text x="300" y="220" text-anchor="middle" fill="#888" font-family="Quicksand,sans-serif" font-size="10">Cards placed here during auction · bid 1 chip at a time · pass when done</text>

  <!-- Player zones - 3 rows of 2 for up to 6 players -->
  <!-- Row 1: Player 1 + Player 2 -->
  <rect x="10" y="232" width="285" height="60" rx="8" fill="#fff" stroke="#45ACF4" stroke-width="2"/>
  <rect x="18" y="236" width="60" height="22" rx="4" fill="#45ACF4"/>
  <text x="48" y="251" text-anchor="middle" fill="white" font-family="Quicksand,sans-serif" font-size="11" font-weight="700">P1</text>
  <text x="90" y="252" fill="#888" font-family="Quicksand,sans-serif" font-size="10">Chips: ______</text>
  <text x="200" y="252" fill="#888" font-family="Quicksand,sans-serif" font-size="10">Won cards →</text>
  <rect x="18" y="264" width="260" height="22" rx="3" fill="#F2F9FE" stroke="#A6CEEC" stroke-width="1" stroke-dasharray="4,2"/>
  <text x="148" y="279" text-anchor="middle" fill="#AAA" font-family="Quicksand,sans-serif" font-size="9">Won cards go here</text>

  <rect x="305" y="232" width="285" height="60" rx="8" fill="#fff" stroke="#A6CEEC" stroke-width="2"/>
  <rect x="313" y="236" width="60" height="22" rx="4" fill="#A6CEEC"/>
  <text x="343" y="251" text-anchor="middle" fill="#213F99" font-family="Quicksand,sans-serif" font-size="11" font-weight="700">P2</text>
  <text x="385" y="252" fill="#888" font-family="Quicksand,sans-serif" font-size="10">Chips: ______</text>
  <text x="495" y="252" fill="#888" font-family="Quicksand,sans-serif" font-size="10">Won cards →</text>
  <rect x="313" y="264" width="260" height="22" rx="3" fill="#F2F9FE" stroke="#A6CEEC" stroke-width="1" stroke-dasharray="4,2"/>
  <text x="443" y="279" text-anchor="middle" fill="#AAA" font-family="Quicksand,sans-serif" font-size="9">Won cards go here</text>

  <!-- Row 2: Player 3 + Player 4 -->
  <rect x="10" y="300" width="285" height="60" rx="8" fill="#fff" stroke="#45ACF4" stroke-width="2"/>
  <rect x="18" y="304" width="60" height="22" rx="4" fill="#45ACF4"/>
  <text x="48" y="319" text-anchor="middle" fill="white" font-family="Quicksand,sans-serif" font-size="11" font-weight="700">P3</text>
  <text x="90" y="320" fill="#888" font-family="Quicksand,sans-serif" font-size="10">Chips: ______</text>
  <text x="200" y="320" fill="#888" font-family="Quicksand,sans-serif" font-size="10">Won cards →</text>
  <rect x="18" y="332" width="260" height="22" rx="3" fill="#F2F9FE" stroke="#A6CEEC" stroke-width="1" stroke-dasharray="4,2"/>
  <text x="148" y="347" text-anchor="middle" fill="#AAA" font-family="Quicksand,sans-serif" font-size="9">Won cards go here</text>

  <rect x="305" y="300" width="285" height="60" rx="8" fill="#fff" stroke="#A6CEEC" stroke-width="2"/>
  <rect x="313" y="304" width="60" height="22" rx="4" fill="#A6CEEC"/>
  <text x="343" y="319" text-anchor="middle" fill="#213F99" font-family="Quicksand,sans-serif" font-size="11" font-weight="700">P4</text>
  <text x="385" y="320" fill="#888" font-family="Quicksand,sans-serif" font-size="10">Chips: ______</text>
  <text x="495" y="320" fill="#888" font-family="Quicksand,sans-serif" font-size="10">Won cards →</text>
  <rect x="313" y="332" width="260" height="22" rx="3" fill="#F2F9FE" stroke="#A6CEEC" stroke-width="1" stroke-dasharray="4,2"/>
  <text x="443" y="347" text-anchor="middle" fill="#AAA" font-family="Quicksand,sans-serif" font-size="9">Won cards go here</text>

  <!-- Row 3: Player 5 + Player 6 -->
  <rect x="10" y="368" width="285" height="44" rx="8" fill="#fff" stroke="#45ACF4" stroke-width="2"/>
  <rect x="18" y="374" width="60" height="20" rx="4" fill="#45ACF4"/>
  <text x="48" y="388" text-anchor="middle" fill="white" font-family="Quicksand,sans-serif" font-size="10" font-weight="700">P5</text>
  <text x="90" y="389" fill="#888" font-family="Quicksand,sans-serif" font-size="10">Chips: ______  Won cards →</text>
  <rect x="198" y="378" width="80" height="16" rx="3" fill="#F2F9FE" stroke="#A6CEEC" stroke-width="1" stroke-dasharray="4,2"/>

  <rect x="305" y="368" width="285" height="44" rx="8" fill="#fff" stroke="#A6CEEC" stroke-width="2"/>
  <rect x="313" y="374" width="60" height="20" rx="4" fill="#A6CEEC"/>
  <text x="343" y="388" text-anchor="middle" fill="#213F99" font-family="Quicksand,sans-serif" font-size="10" font-weight="700">P6</text>
  <text x="385" y="389" fill="#888" font-family="Quicksand,sans-serif" font-size="10">Chips: ______  Won cards →</text>
  <rect x="493" y="378" width="80" height="16" rx="3" fill="#F2F9FE" stroke="#A6CEEC" stroke-width="1" stroke-dasharray="4,2"/>
</svg>